# xmcd
#
# Track frame offsets:
#	150
#	42989
#	63842
#	86441
#	110284
#	128644
#	154372
#	175276
#	192424
#	220375
#	243402
#	259779
#	275114
#
# Disc length: 3968 seconds
#
# Revision: 1
# Processed by: cddbd v1.5.1PL2 Copyright (c) Steve Scherf et al.
# Submitted via: Rip'N'TagIt 1.3.0.1 
#
DISCID=bd0f7e0d
DTITLE=Cool Summer Grooves - Destination Brasil
DYEAR=2004
DGENRE=blues
TTITLE0=Aurora/ Kaoru Inoue
TTITLE1=clarão de Lua/ Gerd
TTITLE2=Azul (Swinming Into the Blue)/Carla Alexandar
TTITLE3=Maria Moita/ Nicole Conte
TTITLE4=Smooth Operator/ Senõr Coconut
TTITLE5=Hit The Road jack/ Mo'Horizons
TTITLE6=Mr. Doorman/ Arsenal
TTITLE7=Summer Sun/ Koop
TTITLE8=Alegre 2003/ Truby trio
TTITLE9=Vista do Mar/ Les Hommes
TTITLE10=I really want You/ Arkestra One feat. NIna Miranda
TTITLE11=London in The Rain/ Varirty Lab
TTITLE12=Sky/ Speedometer
EXTD=YEAR: 2004
EXTT0=
EXTT1=
EXTT2=
EXTT3=
EXTT4=
EXTT5=
EXTT6=
EXTT7=
EXTT8=
EXTT9=
EXTT10=
EXTT11=
EXTT12=
PLAYORDER=
